<?xml version="1.0" encoding="utf-8"?>
<!-- Generator: Adobe Illustrator 22.1.0, SVG Export Plug-In . SVG Version: 6.00 Build 0)  -->
<svg version="1.1" id="Layer_1" xmlns="http://www.w3.org/2000/svg" xmlns:xlink="http://www.w3.org/1999/xlink" x="0px" y="0px"
	 viewBox="0 0 153 44.5" style="enable-background:new 0 0 153 44.5;" xml:space="preserve">
<style type="text/css">
	.st0{fill:#FEFEFE;}
	.st1{fill:#0E5EA8;}
	.st2{fill:#F08200;}
	.st3{fill:#F08300;}
	.st4{fill:#F49D3C;}
	.st5{fill:#1765A9;}
</style>
<g>
	<g>
		<rect x="5.4" y="0.4" class="st0" width="142.3" height="43.8"/>
		<g>
			<g>
				<path class="st1" d="M18.5,37l-3.4-4.8v4.6c0,0.2-0.2,0.4-0.4,0.4s-0.4-0.2-0.4-0.4v-5.3c0-0.3,0.2-0.5,0.5-0.5
					c0.2,0,0.3,0.1,0.4,0.2l3.4,4.7v-4.5c0-0.2,0.2-0.4,0.4-0.4c0.2,0,0.4,0.2,0.4,0.4v5.3c0,0.3-0.2,0.5-0.5,0.5
					C18.7,37.2,18.6,37.2,18.5,37z"/>
				<path class="st1" d="M24.4,33.2V37c0,0.2-0.2,0.3-0.3,0.3c-0.2,0-0.3-0.2-0.3-0.3v-0.3c-0.3,0.4-0.9,0.7-1.6,0.7
					c-0.9,0-1.4-0.4-1.4-1.4v-2.8c0-0.2,0.2-0.3,0.3-0.3c0.2,0,0.3,0.2,0.3,0.3v2.6c0,0.8,0.4,1,1,1c0.5,0,1.1-0.3,1.3-0.7v-2.9
					c0-0.2,0.2-0.3,0.3-0.3C24.2,32.8,24.4,33,24.4,33.2z"/>
				<path class="st1" d="M31.8,34V37c0,0.2-0.2,0.3-0.3,0.3c-0.2,0-0.3-0.2-0.3-0.3v-2.7c0-0.6-0.2-0.9-0.8-0.9
					c-0.5,0-0.9,0.3-1.2,0.7V37c0,0.2-0.2,0.3-0.3,0.3c-0.2,0-0.3-0.2-0.3-0.3v-2.7c0-0.6-0.2-0.9-0.8-0.9c-0.4,0-0.9,0.3-1.2,0.7
					V37c0,0.2-0.2,0.3-0.3,0.3C26.1,37.2,26,37,26,37v-3.8c0-0.2,0.2-0.3,0.3-0.3c0.2,0,0.3,0.2,0.3,0.3v0.3
					c0.2-0.3,0.8-0.7,1.4-0.7c0.7,0,1.1,0.4,1.2,0.8c0.2-0.4,0.8-0.8,1.5-0.8C31.4,32.8,31.8,33.2,31.8,34z"/>
				<path class="st1" d="M37.2,35c0,1.4-0.8,2.3-2,2.3c-0.6,0-1.2-0.3-1.5-0.8V37c0,0.2-0.2,0.3-0.3,0.3c-0.2,0-0.3-0.2-0.3-0.3
					v-5.5c0-0.2,0.2-0.3,0.3-0.3c0.2,0,0.3,0.2,0.3,0.3v2.1c0.3-0.5,0.9-0.8,1.5-0.8C36.5,32.8,37.2,33.7,37.2,35z M36.5,35
					c0-1-0.5-1.7-1.4-1.7c-0.5,0-1.1,0.3-1.3,0.7v2c0.2,0.4,0.8,0.7,1.3,0.7C36,36.8,36.5,36,36.5,35z"/>
				<path class="st1" d="M40.2,32.8c1.3,0,2.1,1,2.1,2.2c0,0.2-0.1,0.3-0.4,0.3h-3.2c0.1,0.8,0.6,1.5,1.6,1.5c0.4,0,0.8-0.1,1.2-0.4
					c0,0,0.1,0,0.2,0c0.2,0,0.3,0.1,0.3,0.3c0,0.1,0,0.2-0.1,0.2c-0.4,0.3-1,0.5-1.6,0.5c-1.3,0-2.2-0.9-2.2-2.3
					C38.2,33.8,39,32.8,40.2,32.8z M38.9,34.8h2.9c0-0.7-0.4-1.5-1.5-1.5C39.4,33.2,38.9,34,38.9,34.8z"/>
				<path class="st1" d="M45.8,33c0,0.2-0.1,0.3-0.4,0.3c-0.4,0-0.9,0.3-1.1,0.7v2.8c0,0.2-0.2,0.3-0.3,0.3c-0.2,0-0.3-0.2-0.3-0.3
					V33c0-0.2,0.2-0.3,0.3-0.3c0.2,0,0.3,0.2,0.3,0.3v0.4c0.3-0.4,0.6-0.6,1-0.7c0.1,0,0.1,0,0.2,0C45.5,32.8,45.8,33,45.8,33z"/>
				<path class="st1" d="M48.5,35c0-1.3,0.9-2.3,2.3-2.3c1.5,0,2.3,1.1,2.3,2.3c0,1.3-0.9,2.3-2.3,2.3S48.5,36.3,48.5,35z M52,35
					c0-0.7-0.4-1.3-1.1-1.3c-0.7,0-1.1,0.6-1.1,1.3s0.4,1.3,1.1,1.3S52,35.8,52,35z"/>
				<path class="st1" d="M58.2,34.2v2.6c0,0.3-0.3,0.6-0.6,0.6S57,37,57,36.8v-2.1c0-0.6-0.3-0.8-0.8-0.8s-0.8,0.3-1,0.5v2.4
					c0,0.3-0.3,0.6-0.6,0.6S54,37.1,54,36.8v-3.4c0-0.3,0.3-0.6,0.6-0.6s0.6,0.3,0.6,0.6l0,0c0.3-0.3,0.8-0.7,1.5-0.7
					C57.7,32.8,58.2,33.2,58.2,34.2z"/>
				<path class="st1" d="M61.4,32.8c1.3,0,2.2,1,2.2,2.1c0,0.4-0.2,0.5-0.7,0.5h-2.6c0.1,0.6,0.5,1,1.3,1c0.3,0,0.6-0.1,0.9-0.2
					c0.1,0,0.1-0.1,0.2-0.1c0.2,0,0.5,0.2,0.5,0.5c0,0.2-0.1,0.3-0.2,0.4c-0.4,0.2-0.9,0.4-1.5,0.4c-1.3,0-2.4-0.9-2.4-2.3
					C59,33.8,60,32.8,61.4,32.8z M60.2,34.7h2.2c0-0.4-0.3-1-1.1-1C60.5,33.7,60.2,34.2,60.2,34.7z"/>
				<path class="st1" d="M66.9,37v-5.5c0-0.2,0.2-0.3,0.3-0.3c0.2,0,0.3,0.2,0.3,0.3V37c0,0.2-0.2,0.3-0.3,0.3
					C67,37.2,66.9,37.2,66.9,37z"/>
				<path class="st1" d="M68.8,31.5c0-0.3,0.2-0.5,0.5-0.5s0.5,0.2,0.5,0.5S69.6,32,69.3,32S68.8,31.8,68.8,31.5z M68.9,37v-3.8
					c0-0.2,0.2-0.3,0.3-0.3c0.2,0,0.3,0.2,0.3,0.3V37c0,0.2-0.2,0.3-0.3,0.3S68.9,37.2,68.9,37z"/>
				<path class="st1" d="M70.7,36.5c0-0.2,0.1-0.3,0.3-0.3c0.1,0,0.1,0,0.2,0.1c0.3,0.3,0.8,0.5,1.3,0.5c0.7,0,1-0.3,1-0.7
					c0-0.5-0.5-0.6-1.1-0.8c-0.7-0.2-1.6-0.4-1.6-1.3c0-0.7,0.6-1.3,1.6-1.3c0.6,0,1.1,0.2,1.5,0.5c0.1,0.1,0.1,0.1,0.1,0.2
					c0,0.2-0.1,0.3-0.3,0.3c-0.1,0-0.1,0-0.2-0.1c-0.3-0.2-0.7-0.4-1.1-0.4c-0.6,0-1,0.3-1,0.7s0.5,0.6,1.1,0.7
					c0.8,0.2,1.7,0.4,1.7,1.4c0,0.7-0.6,1.3-1.7,1.3c-0.6,0-1.1-0.2-1.6-0.5C70.7,36.8,70.7,36.7,70.7,36.5z"/>
				<path class="st1" d="M77.1,37c0,0.1-0.1,0.2-0.2,0.3c-0.2,0.1-0.3,0.1-0.6,0.1c-0.6,0-1-0.4-1-1v-2.9h-0.5
					c-0.2,0-0.3-0.1-0.3-0.3s0.1-0.3,0.3-0.3h0.5v-0.9c0-0.2,0.2-0.3,0.3-0.3c0.2,0,0.3,0.2,0.3,0.3v0.9h0.6c0.2,0,0.3,0.1,0.3,0.3
					s-0.1,0.3-0.3,0.3H76v2.7c0,0.3,0.1,0.6,0.4,0.6c0.2,0,0.3-0.1,0.3-0.1C77,36.7,77.1,36.8,77.1,37z"/>
				<path class="st1" d="M77.8,31.5c0-0.3,0.2-0.5,0.5-0.5s0.5,0.2,0.5,0.5S78.6,32,78.3,32S77.8,31.8,77.8,31.5z M77.9,37v-3.8
					c0-0.2,0.2-0.3,0.3-0.3c0.2,0,0.3,0.2,0.3,0.3V37c0,0.2-0.2,0.3-0.3,0.3S77.9,37.2,77.9,37z"/>
				<path class="st1" d="M83.6,34.2V37c0,0.2-0.2,0.3-0.3,0.3c-0.2,0-0.3-0.2-0.3-0.3v-2.6c0-0.8-0.4-1-1-1c-0.5,0-1.1,0.3-1.3,0.7
					V37c0,0.2-0.2,0.3-0.3,0.3c-0.2,0-0.3-0.2-0.3-0.3v-3.8c0-0.2,0.2-0.3,0.3-0.3c0.2,0,0.3,0.2,0.3,0.3v0.3
					c0.3-0.4,0.9-0.8,1.6-0.8C83.1,32.8,83.6,33.2,83.6,34.2z"/>
				<path class="st1" d="M88.9,33.2v4c0,1.5-1,1.9-2.1,1.9c-0.6,0-1.1-0.1-1.6-0.5c-0.1-0.1-0.1-0.1-0.1-0.2c0-0.2,0.1-0.3,0.3-0.3
					c0.1,0,0.1,0,0.2,0.1c0.3,0.3,0.7,0.4,1.2,0.4c0.7,0,1.4-0.4,1.4-1.3v-0.6c-0.3,0.4-0.9,0.8-1.5,0.8c-1.2,0-2-0.9-2-2.3
					c0-1.4,0.8-2.3,2-2.3c0.6,0,1.1,0.3,1.5,0.8v-0.4c0-0.2,0.2-0.3,0.3-0.3C88.7,32.8,88.9,33,88.9,33.2z M88.2,36V34
					c-0.2-0.4-0.8-0.7-1.3-0.7c-0.9,0-1.4,0.7-1.4,1.7s0.5,1.7,1.4,1.7C87.4,36.8,88,36.3,88.2,36z"/>
				<path class="st1" d="M92.3,35c0-1.3,0.8-2.3,2.2-2.3s2.2,1,2.2,2.3s-0.8,2.3-2.2,2.3S92.3,36.3,92.3,35z M96,35
					c0-0.9-0.5-1.7-1.5-1.7S93,34.1,93,35s0.5,1.7,1.5,1.7S96,36,96,35z"/>
				<path class="st1" d="M101.5,34.2V37c0,0.2-0.2,0.3-0.3,0.3c-0.2,0-0.3-0.2-0.3-0.3v-2.6c0-0.8-0.4-1-1-1c-0.5,0-1.1,0.3-1.3,0.7
					V37c0,0.2-0.2,0.3-0.3,0.3c-0.2,0-0.3-0.2-0.3-0.3v-3.8c0-0.2,0.2-0.3,0.3-0.3c0.2,0,0.3,0.2,0.3,0.3v0.3
					c0.3-0.4,0.9-0.8,1.6-0.8C101,32.8,101.5,33.2,101.5,34.2z"/>
				<path class="st1" d="M107.1,37c0,0.1-0.1,0.2-0.2,0.3c-0.2,0.1-0.3,0.1-0.6,0.1c-0.6,0-1-0.4-1-1v-2.9h-0.5
					c-0.2,0-0.3-0.1-0.3-0.3s0.1-0.3,0.3-0.3h0.5v-0.9c0-0.2,0.2-0.3,0.3-0.3c0.2,0,0.3,0.2,0.3,0.3v0.9h0.6c0.2,0,0.3,0.1,0.3,0.3
					s-0.1,0.3-0.3,0.3H106v2.7c0,0.3,0.1,0.6,0.4,0.6c0.2,0,0.3-0.1,0.3-0.1C107,36.7,107.1,36.8,107.1,37z"/>
				<path class="st1" d="M110.9,37v-2.6c0-0.8-0.4-1-1-1c-0.5,0-1,0.3-1.3,0.7V37c0,0.2-0.2,0.3-0.3,0.3c-0.2,0-0.3-0.2-0.3-0.3
					v-5.5c0-0.2,0.2-0.3,0.3-0.3c0.2,0,0.3,0.2,0.3,0.3v2c0.3-0.4,0.9-0.7,1.6-0.7c0.9,0,1.4,0.4,1.4,1.4V37c0,0.2-0.2,0.3-0.3,0.3
					C111.1,37.2,110.9,37.2,110.9,37z"/>
				<path class="st1" d="M112.7,35c0-1.3,0.8-2.3,2.2-2.3s2.2,1,2.2,2.3s-0.8,2.3-2.2,2.3S112.7,36.3,112.7,35z M116.3,35
					c0-0.9-0.5-1.7-1.5-1.7c-0.9,0-1.5,0.8-1.5,1.7s0.5,1.7,1.5,1.7S116.3,36,116.3,35z"/>
				<path class="st1" d="M124.2,34V37c0,0.2-0.2,0.3-0.3,0.3c-0.2,0-0.3-0.2-0.3-0.3v-2.7c0-0.6-0.2-0.9-0.8-0.9
					c-0.5,0-0.9,0.3-1.2,0.7V37c0,0.2-0.2,0.3-0.3,0.3s-0.3-0.2-0.3-0.3v-2.7c0-0.6-0.2-0.9-0.8-0.9c-0.4,0-0.9,0.3-1.2,0.7V37
					c0,0.2-0.2,0.3-0.3,0.3c-0.2,0-0.3-0.2-0.3-0.3v-3.8c0-0.2,0.2-0.3,0.3-0.3c0.2,0,0.3,0.2,0.3,0.3v0.3c0.2-0.3,0.8-0.7,1.4-0.7
					c0.7,0,1.1,0.4,1.2,0.8c0.2-0.4,0.8-0.8,1.5-0.8C123.8,32.8,124.2,33.2,124.2,34z"/>
				<path class="st1" d="M125.3,36.5c0-0.2,0.1-0.3,0.3-0.3c0.1,0,0.1,0,0.2,0.1c0.3,0.3,0.8,0.5,1.3,0.5c0.7,0,1-0.3,1-0.7
					c0-0.5-0.5-0.6-1.1-0.8c-0.7-0.2-1.6-0.4-1.6-1.3c0-0.7,0.6-1.3,1.6-1.3c0.6,0,1.1,0.2,1.5,0.5c0.1,0.1,0.1,0.1,0.1,0.2
					c0,0.2-0.1,0.3-0.3,0.3c-0.1,0-0.1,0-0.2-0.1c-0.3-0.2-0.7-0.4-1.1-0.4c-0.6,0-1,0.3-1,0.7s0.5,0.6,1.1,0.7
					c0.8,0.2,1.7,0.4,1.7,1.4c0,0.7-0.6,1.3-1.7,1.3c-0.6,0-1.1-0.2-1.6-0.5C125.3,36.8,125.3,36.7,125.3,36.5z"/>
				<path class="st1" d="M129.6,35c0-1.3,0.8-2.3,2.2-2.3s2.2,1,2.2,2.3s-0.8,2.3-2.2,2.3S129.6,36.3,129.6,35z M133.1,35
					c0-0.9-0.5-1.7-1.5-1.7c-0.9,0-1.5,0.8-1.5,1.7s0.5,1.7,1.5,1.7S133.1,36,133.1,35z"/>
				<path class="st1" d="M138.6,34.2V37c0,0.2-0.2,0.3-0.3,0.3c-0.2,0-0.3-0.2-0.3-0.3v-2.6c0-0.8-0.4-1-1-1c-0.5,0-1.1,0.3-1.3,0.7
					V37c0,0.2-0.2,0.3-0.3,0.3c-0.2,0-0.3-0.2-0.3-0.3v-3.8c0-0.2,0.2-0.3,0.3-0.3c0.2,0,0.3,0.2,0.3,0.3v0.3
					c0.3-0.4,0.9-0.8,1.6-0.8C138.1,32.8,138.6,33.2,138.6,34.2z"/>
			</g>
			<g id="jA3zYk.tif_4_">
				<g>
					<path class="st0" d="M11.6,12.2c0-2.1,0-4.1,0-6.2c0-0.4,0.1-0.5,0.5-0.5c14.5,0,29.1,0,43.6,0c12.3,0,24.6,0,36.9,0
						c0,0.1,0.1,0.1,0,0.2c-0.2,0.5-0.2,1-0.2,1.5c0,3.4,0,6.9,0,10.3c0,0.7,0.1,1.4,0.2,2c0.4,2.3,1.6,2.8,3.8,2.1
						c0.8-0.3,1.5-0.8,2.1-1.4c0.7-0.7,0.7-0.7,1.2,0c0.7,0.8,1.5,1.3,2.5,1.5c1.2,0.3,2.5,0.3,3.7,0c1.4-0.4,2.5-1.2,3.1-2.7
						c0.8-2.1,0.7-4.1-0.6-6c-0.5-0.7-1.2-1.1-1.9-1.4c-1.4-0.5-2.8-0.5-4.2-0.2c-1.9,0.5-3.3,2.1-3.5,4.1c-0.1,0.9-0.1,1.7,0.1,2.6
						c0.1,0.6-0.2,1-0.9,1.2c-0.6,0.2-1.1,0-1.4-0.5c-0.2-0.4-0.2-0.8-0.2-1.2c0-3.3,0-6.6,0-9.9c0-1.1-0.2-1.4-1.2-1.8
						c-0.3-0.1-0.6-0.2-1-0.3c-0.2,0-0.4,0-0.4-0.3c13.6,0,27.1,0,40.7,0c-0.2,3.5,0,7-0.1,10.4c0,0.8-0.1,1.6-0.1,2.5
						c0,0.5-0.8,1.1-1.4,1.2c-0.6,0.1-1-0.1-1.2-0.7c-0.1-0.4-0.2-0.7-0.2-1.1c0-1.7,0-3.4,0-5.1c0-0.7-0.1-0.8-0.8-0.9
						c-2.1-0.4-4.1-0.4-6.1,0.3c-2.1,0.7-3.4,2.5-3.4,4.8c0,0.5,0,0.9,0,1.4s-0.2,0.8-0.7,1.1c-1.3,0.6-2.5,1-4,1
						c-1.2-0.1-2.1-0.8-2.3-2c-0.2-1.2-0.1-2.4,0.4-3.5c0.3-0.8,0.8-1.4,1.7-1.6c0.4-0.1,0.7-0.2,1,0.1c0.3,0.3,0.3,0.6,0.2,1v0.1
						c-0.2,0.9,0.1,1.5,0.8,1.7c0.9,0.2,1.6-0.3,1.8-1.2c0.2-1-0.2-1.9-1-2.5c-0.8-0.7-1.8-0.9-2.8-0.8c-2.2,0-4.1,0.8-5.2,2.8
						c-1.1,1.9-1.1,3.9,0,5.7s2.8,2.2,4.8,2.1c1.8-0.2,3.3-0.9,4.8-1.9c0.7-0.5,0.8-0.5,1.2,0.3c0.8,1.9,3.4,2.1,4.5,0.6
						c0.3-0.4,0.5-0.8,0.8-1.1c0.1-0.2,0.2-0.4,0.5-0.4c0.3,0,0.3,0.3,0.3,0.5c0.1,0.4,0.3,0.8,0.5,1.2c0.7,1,2.3,0.9,3.3,0.5
						c0.8-0.3,1.5-0.8,2.1-1.5c0.4-0.4,0.6-0.4,0.9,0.2c0.8,1.6,2.5,2.1,4.1,1.1c1.1-0.6,1.8-1.5,2.4-2.8c-0.4,0.3-0.6,0.5-1,0.6
						c-1,0.5-1.8,0.1-1.9-1.1c0-1.1,0-2.3,0-3.4c0-2.4,0-4.8,0-7.2c0-0.7-0.3-1.2-0.9-1.4c-0.4-0.2-0.8-0.3-1.2-0.4
						c-0.2-0.1-0.5,0-0.5-0.3c1.8,0,3.7,0,5.5,0c0.3,0,0.3,0.1,0.3,0.3c0,7.8,0,15.6,0,23.4c0,0.3-0.1,0.4-0.3,0.3
						c-0.1,0-0.2,0-0.3,0c-42.9,0-85.8,0-128.7,0c-0.5,0-0.6-0.1-0.6-0.6c0-5,0-10.1,0-15.1c0.9-0.4,1.4-0.1,1.4,0.9
						c0,1.4,0,2.9,0,4.3c-0.1,2.5,1.2,2.9,3,3c0.9,0,1.8-0.1,2.7-0.3c0.5-0.1,0.7-0.4,0.5-0.9v-0.1c-0.3-1.4-0.3-1.3-1.5-1.1
						c-0.9,0.1-1.2-0.1-1.2-1c0-1.3,0-2.5,0-3.8c0-0.8,0.1-0.9,1-0.9c0.3,0,0.7,0,1,0c0.4,0,0.5-0.2,0.6-0.5
						c0.1-0.5,0.1-0.9,0.1-1.4c0-0.3-0.2-0.4-0.5-0.4c-0.5,0-1,0-1.5,0s-0.7-0.2-0.7-0.7c0-0.6,0-1.2,0-1.8c0-0.8,0-0.9-0.9-0.8
						c-0.5,0.1-1,0-1.5,0.1s-0.7,0.2-0.8,0.8c0,0.6-0.1,1.2-0.2,1.8c0,0.3-0.2,0.6-0.5,0.6c-0.5,0-0.8,0.2-0.9,0.7
						C11.7,12.2,11.6,12.2,11.6,12.2z"/>
					<path class="st2" d="M135.6,5.5c0.6,0.2,1.3,0.3,1.9,0.6c0.6,0.3,0.9,0.7,0.9,1.4c0,3.4,0,6.9,0,10.3c0,0.6-0.1,1.2,0.5,1.5
						s1.1-0.1,1.6-0.5c0.2-0.2,0.5-0.4,0.7-0.5c0.1,0.1,0.1,0.3,0.1,0.4c-0.5,1.7-2.5,3.3-4.3,3.4c-1.3,0.1-2.1-0.4-2.5-1.6
						c-0.1-0.2-0.1-0.3-0.2-0.6c-0.4,0.4-0.7,0.7-1.1,1c-0.8,0.7-1.8,1.2-2.9,1.2c-1.3,0.1-2-0.5-2.5-1.7c-0.1-0.3-0.2-0.6-0.3-1
						c-0.3,0.3-0.4,0.6-0.6,0.9c-0.6,1.1-1.5,1.8-2.9,1.7c-1.3-0.1-2.1-0.8-2.6-2c-0.1-0.4-0.3-0.3-0.5-0.1c-1.4,1.1-3,1.8-4.8,2.1
						c-3.4,0.5-6.6-1.5-5.9-6.2c0.5-3,3.3-5,6.4-4.7c0.9,0.1,1.8,0.3,2.6,0.9c0.8,0.6,1.2,1.5,1.1,2.5c-0.1,1.1-1,1.7-2.1,1.5
						c-0.8-0.2-1.2-1-0.9-2c0.1-0.3,0.3-0.6,0-0.9s-0.7-0.2-1,0c-1,0.4-1.4,1.3-1.7,2.3c-0.2,0.8-0.2,1.6-0.1,2.5
						c0.1,1.2,0.9,1.9,2.1,2c1.6,0.1,2.9-0.5,4.3-1.1c0.3-0.1,0.2-0.4,0.2-0.6c0-0.8-0.1-1.6,0.1-2.3c0.4-2.5,2-3.8,4.4-4.4
						c2-0.5,3.9-0.3,5.9,0.1c0.4,0.1,0.4,0.3,0.4,0.6c0,1.5,0,3,0,4.5c0,0.4,0,0.8,0,1.2c0,0.6,0,1.2,0.6,1.5
						c0.4,0.2,1.2-0.1,1.7-0.6c0.1-0.1,0.1-0.3,0.1-0.5c0-3.9,0-7.8,0-11.7c0-0.4-0.1-0.9,0.3-1.2C134.8,5.5,135.1,5.5,135.6,5.5z"
						/>
					<path class="st3" d="M93.8,5.5c0.7,0.3,1.4,0.4,2,0.7c0.5,0.3,0.8,0.6,0.8,1.3c0,3.4,0,6.7,0,10.1c0,0.2,0,0.4,0,0.6
						c0,0.5,0.1,1,0.6,1.2s0.9-0.1,1.3-0.3c0.3-0.2,0.4-0.4,0.3-0.7c-0.3-1.1-0.3-2.2,0-3.3c0.5-2.1,2-3.5,4.1-3.8
						c0.9-0.1,1.9-0.1,2.8,0c2.5,0.5,4,2.2,4.1,4.8c0,0.7,0,1.4-0.1,2.1c-0.5,2.1-1.9,3.5-4,3.8c-1.1,0.2-2.2,0.2-3.3-0.1
						c-1.1-0.3-2.1-0.9-2.7-1.8c-0.2-0.3-0.3-0.3-0.6,0c-0.5,0.6-1.2,1.2-1.9,1.5c-0.2,0.1-0.3,0.1-0.5,0.2
						c-2.3,0.9-3.8-0.1-4.1-2.5c-0.1-0.4-0.1-0.9-0.1-1.3c0-3.8,0-7.6,0-11.3c0-0.4-0.1-0.8,0.3-1.1C93.1,5.5,93.4,5.7,93.8,5.5
						C93.6,5.5,93.7,5.5,93.8,5.5z"/>
					<path class="st1" d="M11.6,12.2c0.1,0,0.1-0.1,0.1-0.2c-0.1-0.5,0.2-0.7,0.7-0.6c0.4,0.1,0.5-0.1,0.6-0.5
						c0-0.7,0.2-1.5,0.2-2.2c0-0.3,0.1-0.5,0.4-0.5c0.8,0,1.6-0.1,2.5-0.2c0.4,0,0.5,0.1,0.5,0.5c0,0.8,0,1.6,0,2.4
						c0,0.5,0.1,0.6,0.6,0.5c0.6,0,1.2,0,1.8,0c0.3,0,0.4,0.1,0.4,0.4c-0.1,0.6-0.2,1.2-0.2,1.8c0,0.3-0.1,0.4-0.5,0.4
						c-0.6,0-1.1,0-1.7,0c-0.3,0-0.4,0.1-0.4,0.4c0,1.5,0,3,0,4.5c0,0.4,0.2,0.6,0.6,0.5c0.5-0.1,0.9-0.1,1.4-0.2
						c0.4-0.1,0.5,0,0.5,0.4c0.1,0.4,0.2,0.9,0.3,1.3c0.2,0.6,0,0.8-0.6,1c-1.3,0.3-2.6,0.5-3.9,0.3c-1.3-0.2-2.1-1.1-2.1-2.5
						c0-1.6-0.1-3.3,0-4.9c0-0.7-0.2-0.9-0.8-0.9c-0.1,0-0.3,0-0.4,0C11.6,13.3,11.6,12.8,11.6,12.2z"/>
					<path class="st4" d="M93.5,5.5c-0.3,0.2-0.6,0.1-0.9,0.1V5.5C92.9,5.5,93.2,5.5,93.5,5.5z"/>
					<path class="st1" d="M43.4,11.4c1-0.2,1.9-0.1,2.9-0.2c0.3,0,0.3,0.1,0.4,0.3c0.1,0.3,0.1,0.6,0.2,1c1-0.7,2-1.4,3.2-1.5
						c1.3-0.1,2.4,0.2,2.9,1.6c0.5-0.4,1-0.8,1.5-1.1c0.9-0.5,1.8-0.6,2.8-0.4c1.1,0.2,1.7,0.8,1.9,1.9c0.2,0.9,0.1,1.9,0.1,2.8
						c0,1.9,0,3.8,0,5.7c0,0.4-0.1,0.6-0.6,0.6c-0.8,0-1.7,0-2.5,0c-0.5,0-0.6-0.1-0.6-0.6c0-2,0-4.1,0-6.1c0-1.1-0.4-1.3-1.4-0.9
						c-0.7,0.3-1.1,0.7-1.1,1.6c0.1,1.8,0,3.6,0,5.4c0,0.5-0.2,0.7-0.7,0.6c-0.8,0-1.6,0-2.4,0c-0.5,0-0.6-0.2-0.6-0.6
						c0-2,0-4.1,0-6.1c0-1.1-0.4-1.4-1.5-0.9c-0.7,0.3-1.1,0.7-1,1.6c0.1,1.8,0,3.6,0,5.4c0,0.5-0.1,0.6-0.6,0.6c-1,0-2,0-3-0.1
						c-0.1-0.1-0.1-0.3-0.1-0.4c0-3.2,0-6.5,0-9.7C43.2,11.7,43.2,11.5,43.4,11.4z"/>
					<path class="st1" d="M24.2,12.4c0.4-0.2,0.7-0.5,1.1-0.7c0.7-0.4,1.5-0.7,2.3-0.6c1.6,0.1,2.5,0.9,2.6,2.5c0.1,2.7,0,5.4,0,8.1
						c0,0.3-0.2,0.4-0.4,0.4c-1,0-1.9,0-2.9,0c-0.4,0-0.5-0.1-0.5-0.5c0-2.1,0-4.3,0-6.4c0-0.9-0.4-1.1-1.2-0.8
						c-0.9,0.4-1.1,0.7-1.1,1.7c0,1.8,0,3.6,0,5.4c0,0.4-0.1,0.6-0.6,0.6c-0.9,0-1.8,0-2.7,0c-0.4,0-0.5,0-0.5-0.5
						c0-5.1,0-10.1,0-15.2c0-0.3,0.1-0.5,0.4-0.5c1,0,1.9-0.1,2.9-0.2C24.1,5.7,24,6,24,6.2c0,1.8,0,3.7,0,5.5
						C24.2,11.9,24.1,12.1,24.2,12.4z"/>
					<path class="st1" d="M81.4,16.6c0-1.6,0-3.2,0-4.8c0-0.4,0.1-0.5,0.5-0.5c0.8,0,1.6,0,2.3-0.1c0.4,0,0.6,0.1,0.7,0.5
						c0,0.1,0.1,0.2,0.1,0.4c0,0.4,0.1,0.5,0.5,0.2c1.1-0.8,2.3-1.4,3.7-1.2c1.1,0.2,1.8,0.8,2,1.9c0.1,0.4,0.1,0.8,0.1,1.3
						c0,2.4,0,4.9,0,7.3c0,0.4-0.1,0.6-0.5,0.5c-0.9,0-1.9,0-2.8,0c-0.4,0-0.5-0.1-0.5-0.5c0-2.1,0-4.2,0-6.3c0-0.9-0.4-1.2-1.2-0.8
						c-0.7,0.3-1.1,0.7-1.1,1.7c0.1,1.8,0,3.6,0,5.4c0,0.4-0.1,0.6-0.5,0.5c-0.9,0-1.9,0-2.8,0c-0.4,0-0.5-0.1-0.5-0.5
						C81.4,19.9,81.4,18.3,81.4,16.6z"/>
					<path class="st1" d="M69.7,17c0-4.2,2.8-6.5,6.9-5.9c3.2,0.5,4.3,2.5,4.1,5.8c-0.3,3.6-2.8,5.5-6.4,5.2c-0.3,0-0.6,0-0.9-0.1
						c-2.2-0.4-3.5-1.8-3.7-4.2C69.7,17.6,69.7,17.2,69.7,17z"/>
					<path class="st1" d="M42.4,16.3c0.1,3.8-2.5,6.2-6.3,5.9c-0.4,0-0.8-0.1-1.3-0.2c-1.9-0.4-3-1.5-3.3-3.4
						c-0.2-1.1-0.3-2.2-0.1-3.3c0.5-2.5,2.3-4.1,4.9-4.3c0.7,0,1.4,0,2.1,0.1c2.3,0.4,3.6,1.8,3.8,4.1C42.4,15.6,42.4,16,42.4,16.3z
						"/>
					<path class="st1" d="M139.1,28.7c0.3-0.4,0.7-0.6,0.6-1.1c-0.2-0.5-0.8-0.4-1.2-0.4c-6.9-0.7-13.8-1.2-20.7-1.4
						c-8.2-0.2-16.3,0-24.5,0.7c-0.5,0-0.9,0-1.4,0.1c-0.4,0-0.7,0-0.8-0.4c-0.1-0.5,0.4-0.4,0.6-0.4c2.7-0.3,5.4-0.6,8.1-0.8
						c6.5-0.5,13-0.8,19.5-0.8c6.6,0,13.3,0.3,19.9,0.8c0.7,0.1,1.6,0.2,1.8,1c0.3,0.9-0.2,1.6-0.8,2.1
						C140.1,28.5,139.8,29,139.1,28.7z"/>
					<path class="st1" d="M64.4,22.2c-1.3,0-2.5-0.2-3.7-0.6c-0.4-0.1-0.5-0.3-0.4-0.7c0.2-0.6,0.3-1.2,0.4-1.8
						c0.1-0.3,0.2-0.4,0.5-0.3c1,0.4,2.1,0.6,3.1,0.7c0,0,0,0,0.1,0c0.5,0,1.2,0.1,1.3-0.5c0.1-0.6-0.6-0.7-1-0.8
						c-0.7-0.2-1.4-0.4-2.1-0.7c-2.2-1-2.7-3.7-0.9-5.4c0.8-0.8,1.9-1.1,3-1.1c1.4-0.1,2.7,0.2,4,0.7c0.3,0.1,0.4,0.2,0.3,0.5
						c-0.2,0.6-0.4,1.2-0.6,1.8c-0.1,0.4-0.3,0.4-0.6,0.3c-0.7-0.3-1.5-0.4-2.3-0.5c-0.2,0-0.3,0-0.5,0c-0.3,0-0.7,0.1-0.7,0.5
						s0.2,0.5,0.5,0.6s0.6,0.2,0.9,0.3c0.5,0.2,1.1,0.3,1.6,0.5c1.1,0.4,1.9,1.1,2,2.4c0.1,1.4-0.4,2.6-1.7,3.4
						C66.5,22.1,65.4,22.2,64.4,22.2z"/>
					<path class="st5" d="M43.4,11.4c0,3.5,0,7.1,0,10.6c-0.2-0.1-0.1-0.3-0.1-0.4c0-3.3,0-6.5,0-9.8C43.2,11.6,43.2,11.5,43.4,11.4
						z"/>
					<path class="st0" d="M127.5,15.6c0,0.8,0,1.5,0,2.3c0,0.7-0.5,0.9-0.9,1.1c-0.5,0.2-1,0.1-1.3-0.3c-0.1-0.2-0.3-0.3-0.3-0.5
						c-0.4-1.4-0.4-2.7,0.2-4.1c0.4-0.8,1.1-1.2,1.9-1.3c0.3-0.1,0.5,0,0.5,0.4C127.4,14,127.5,14.8,127.5,15.6z"/>
					<path class="st0" d="M105.5,16.7c0,1,0.1,1.9-0.1,2.9c-0.1,0.3-0.2,0.6-0.3,0.8c-0.5,0.7-1.3,0.7-1.8-0.1
						c-0.3-0.5-0.4-1.2-0.4-1.8c0-1.5-0.1-2.9,0.1-4.4c0-0.3,0.1-0.6,0.2-0.9c0.2-0.5,0.4-0.8,1-0.8s0.9,0.3,1.1,0.8
						s0.3,0.9,0.3,1.4C105.5,15.5,105.5,16.1,105.5,16.7z"/>
					<path class="st0" d="M73.6,16.8c0-0.7,0-1.4,0.3-2.1s0.8-1,1.5-1s1.1,0.4,1.3,1.2c0.2,1.2,0.3,2.3-0.1,3.5
						c-0.2,0.9-0.7,1.2-1.6,1.2c-0.7,0-1.1-0.4-1.3-1.2C73.6,17.8,73.6,17.3,73.6,16.8z"/>
					<path class="st0" d="M38.5,16.5c-0.1,0.7,0,1.4-0.3,2c-0.2,0.8-0.7,1.1-1.5,1.1c-0.7,0-1.1-0.3-1.3-1.1c-0.3-1.2-0.3-2.3,0-3.5
						c0.2-0.9,0.8-1.2,1.5-1.2c0.8,0,1.2,0.4,1.3,1.3C38.5,15.6,38.5,16.1,38.5,16.5z"/>
				</g>
			</g>
		</g>
	</g>
</g>
</svg>
