<?xml version="1.0" encoding="utf-8"?>
<!-- Generator: Adobe Illustrator 22.1.0, SVG Export Plug-In . SVG Version: 6.00 Build 0)  -->
<svg version="1.1" id="Layer_1" xmlns="http://www.w3.org/2000/svg" xmlns:xlink="http://www.w3.org/1999/xlink" x="0px" y="0px"
	 viewBox="0 0 121 52" style="enable-background:new 0 0 121 52;" xml:space="preserve">
<style type="text/css">
	.st0{fill:#FFFFFF;}
	.st1{fill:#FEDB00;}
	.st2{fill:#252525;}
</style>
<g>
	<g>
		<g>
			<path class="st0" d="M7.5,16.6H7V9h4.1v0.5H7.5v3.2h3.4v0.5H7.5V16.6z"/>
			<path class="st0" d="M12.1,9.4c0-0.3,0.1-0.5,0.3-0.5c0.1,0,0.2,0.1,0.3,0.1c0.1,0.1,0.1,0.2,0.1,0.4c0,0.2,0,0.3-0.1,0.4
				c-0.1,0.1-0.2,0.1-0.3,0.1C12.2,9.9,12.1,9.8,12.1,9.4z M12.7,16.6h-0.5V11h0.5V16.6z"/>
			<path class="st0" d="M18.5,16.6v-3.6c0-0.6-0.1-1-0.4-1.2c-0.2-0.3-0.6-0.4-1.1-0.4c-0.7,0-1.2,0.2-1.5,0.5
				c-0.3,0.3-0.5,0.9-0.5,1.6v3.1h-0.5V11H15l0.1,0.8h0c0.4-0.6,1-0.9,1.9-0.9c1.3,0,1.9,0.7,1.9,2v3.7L18.5,16.6L18.5,16.6z"/>
			<path class="st0" d="M22.9,10.9c0.4,0,0.8,0.1,1.1,0.2s0.6,0.4,0.8,0.8h0c0-0.4,0-0.9,0-1.3v-2h0.5v8h-0.3l-0.1-0.9h-0.1
				c-0.4,0.6-1,1-1.8,1c-0.8,0-1.4-0.3-1.8-0.7c-0.4-0.5-0.6-1.2-0.6-2.1c0-1,0.2-1.7,0.6-2.2C21.5,11.1,22.1,10.9,22.9,10.9z
				 M22.9,11.3c-0.6,0-1.1,0.2-1.4,0.7S21,13,21,13.9c0,1.6,0.6,2.4,1.8,2.4c0.6,0,1.1-0.2,1.4-0.6s0.5-1,0.5-1.8v-0.1
				c0-0.9-0.2-1.5-0.4-1.9C24,11.5,23.5,11.3,22.9,11.3z"/>
			<path class="st0" d="M30.3,11v3.6c0,0.6,0.1,1,0.4,1.2c0.2,0.3,0.6,0.4,1.1,0.4c0.7,0,1.2-0.2,1.5-0.5c0.3-0.3,0.5-0.9,0.5-1.6
				V11h0.5v5.6h-0.4l-0.1-0.8h0c-0.4,0.6-1,0.9-1.9,0.9c-1.3,0-1.9-0.7-1.9-2V11H30.3z"/>
			<path class="st0" d="M39.6,15.1c0,0.5-0.2,0.9-0.6,1.2s-0.9,0.4-1.6,0.4c-0.8,0-1.3-0.1-1.8-0.4v-0.6c0.6,0.3,1.2,0.4,1.8,0.4
				c0.6,0,1-0.1,1.3-0.3c0.3-0.2,0.4-0.4,0.4-0.7c0-0.3-0.1-0.5-0.4-0.7c-0.2-0.2-0.6-0.4-1.1-0.6c-0.6-0.2-1-0.4-1.2-0.5
				c-0.2-0.2-0.4-0.3-0.5-0.5c-0.1-0.2-0.2-0.4-0.2-0.7c0-0.4,0.2-0.8,0.5-1c0.4-0.3,0.9-0.4,1.5-0.4c0.6,0,1.2,0.1,1.7,0.3
				l-0.2,0.5c-0.6-0.2-1.1-0.3-1.5-0.3c-0.5,0-0.8,0.1-1.1,0.2c-0.3,0.2-0.4,0.4-0.4,0.6c0,0.3,0.1,0.5,0.3,0.7
				c0.2,0.2,0.6,0.4,1.2,0.6c0.5,0.2,0.9,0.4,1.1,0.5c0.2,0.2,0.4,0.3,0.5,0.5C39.5,14.7,39.6,14.9,39.6,15.1z"/>
			<path class="st0" d="M48.4,13.8c0,0.9-0.2,1.6-0.7,2.1c-0.5,0.5-1.1,0.8-1.8,0.8c-0.5,0-0.9-0.1-1.3-0.4c-0.4-0.2-0.7-0.6-0.9-1
				c-0.2-0.5-0.3-1-0.3-1.5c0-0.9,0.2-1.6,0.7-2.1c0.5-0.5,1.1-0.8,1.8-0.8c0.8,0,1.4,0.3,1.8,0.8C48.2,12.2,48.4,12.9,48.4,13.8z
				 M44,13.8c0,0.8,0.2,1.4,0.5,1.8c0.3,0.4,0.8,0.7,1.4,0.7s1.1-0.2,1.4-0.7c0.3-0.4,0.5-1,0.5-1.8c0-0.8-0.2-1.4-0.5-1.8
				c-0.4-0.4-0.8-0.6-1.4-0.6c-0.6,0-1.1,0.2-1.4,0.6C44.2,12.4,44,13,44,13.8z"/>
			<path class="st0" d="M53.9,16.6v-3.6c0-0.6-0.1-1-0.4-1.2c-0.2-0.3-0.6-0.4-1.1-0.4c-0.7,0-1.2,0.2-1.5,0.5
				c-0.3,0.3-0.5,0.9-0.5,1.6v3.1H50V11h0.4l0.1,0.8h0c0.4-0.6,1-0.9,1.9-0.9c1.3,0,1.9,0.7,1.9,2v3.7L53.9,16.6L53.9,16.6z"/>
		</g>
		<path class="st0" d="M55.6,24.8c0.2-0.2,0.5-0.3,0.8-0.3c0.3,0,0.6,0.1,0.8,0.3c0.2,0.2,0.3,0.5,0.3,0.8v15c0,0.3-0.1,0.5-0.3,0.7
			c-0.2,0.2-0.5,0.3-0.8,0.3c-0.3,0-0.6-0.1-0.8-0.3s-0.3-0.5-0.3-0.7v-15C55.3,25.2,55.4,25,55.6,24.8"/>
		<path class="st0" d="M60.1,24.8c0.2-0.2,0.5-0.3,0.8-0.3c0.3,0,0.6,0.1,0.8,0.3c0.2,0.2,0.3,0.5,0.3,0.8v15c0,0.3-0.1,0.5-0.3,0.7
			c-0.2,0.2-0.5,0.3-0.8,0.3c-0.3,0-0.6-0.1-0.8-0.3s-0.3-0.5-0.3-0.7v-15C59.8,25.2,59.9,25,60.1,24.8"/>
		<path class="st0" d="M111.7,39.9C111.7,39.9,111.7,39.9,111.7,39.9c0,0.1,0,0.1,0,0.2c0,0-0.1,0-0.1,0h-0.5v1.5c0,0,0,0.1,0,0.1
			c0,0-0.1,0-0.1,0c0,0-0.1,0-0.1,0s0-0.1,0-0.1v-1.5h-0.5c0,0-0.1,0-0.1,0s0-0.1,0-0.1c0,0,0-0.1,0-0.1c0,0,0.1,0,0.1,0L111.7,39.9
			C111.7,39.9,111.7,39.9,111.7,39.9"/>
		<path class="st0" d="M114,39.9c0,0,0.1,0.1,0.1,0.1v1.5c0,0,0,0.1,0,0.1c0,0-0.1,0-0.1,0c0,0-0.1,0-0.1,0s0-0.1,0-0.1v-1.5
			l-0.6,1.5c0,0,0,0.1-0.1,0.1c0,0-0.1,0-0.1,0c-0.1,0-0.1,0-0.1,0c0,0-0.1-0.1-0.1-0.1l-0.6-1.5v1.5c0,0,0,0.1,0,0.1
			c0,0-0.1,0-0.1,0s-0.1,0-0.1,0c0,0,0-0.1,0-0.1V40c0-0.1,0-0.1,0.1-0.1c0,0,0.1-0.1,0.1-0.1h0.1c0,0,0.1,0,0.1,0
			c0,0,0.1,0.1,0.1,0.1l0.6,1.5l0.6-1.5c0,0,0-0.1,0.1-0.1c0,0,0.1,0,0.1,0h0.1C113.9,39.8,113.9,39.9,114,39.9"/>
		<path class="st0" d="M42.5,25.8c0.2-0.4,0.5-0.5,0.9-0.5c0.4,0,0.6,0.1,0.8,0.3c0.2,0.2,0.3,0.4,0.3,0.7c0,0.3-0.1,0.5-0.2,0.7
			l-5.6,7.9v6c0,0.3-0.1,0.6-0.3,0.8s-0.5,0.3-0.8,0.3c-0.3,0-0.6-0.1-0.8-0.3s-0.3-0.5-0.3-0.8v-6l-5.6-7.9
			c-0.1-0.2-0.2-0.4-0.2-0.7c0-0.3,0.1-0.5,0.3-0.7c0.2-0.2,0.5-0.3,0.8-0.3c0.4,0,0.7,0.2,0.9,0.5l4.9,7.2L42.5,25.8z"/>
		<path class="st0" d="M45.9,39.1c0.7,0.6,1.6,0.9,2.8,0.9s2.2-0.2,3-0.6c0.3-0.2,0.5-0.2,0.7-0.2c0.2,0,0.4,0.1,0.6,0.3
			s0.3,0.4,0.3,0.6c0,0.4-0.2,0.7-0.5,0.9s-0.6,0.3-0.9,0.5c-0.3,0.1-0.6,0.2-0.9,0.3c-0.7,0.2-1.5,0.3-2.5,0.3
			c-1.9,0-3.4-0.5-4.5-1.6c-1.1-1.1-1.6-2.6-1.6-4.6c0-1.7,0.5-3.2,1.3-4.3c1-1.3,2.4-1.9,4.3-1.9c1.7,0,3.1,0.6,4.1,1.8
			c1,1.1,1.4,2.5,1.4,4.1c0,0.3-0.1,0.6-0.3,0.8s-0.5,0.3-0.8,0.3h-8C44.8,37.6,45.2,38.4,45.9,39.1 M48.1,31.3
			c-1.4,0-2.4,0.6-3.1,1.8c-0.2,0.4-0.4,1-0.4,1.6h6.9c-0.1-1.1-0.5-2-1.2-2.6C49.7,31.6,49,31.3,48.1,31.3"/>
		<path class="st0" d="M65.3,40.1c0.2,0.2,0.3,0.4,0.3,0.7v0.1c0,0.3-0.1,0.5-0.3,0.7c-0.2,0.2-0.4,0.3-0.7,0.3h-0.2
			c-0.3,0-0.5-0.1-0.7-0.3c-0.2-0.2-0.3-0.4-0.3-0.7v-0.1c0-0.3,0.1-0.5,0.3-0.7c0.2-0.2,0.4-0.3,0.7-0.3h0.2
			C64.9,39.8,65.1,39.9,65.3,40.1"/>
		<path class="st0" d="M72.5,40c0.9,0,1.7-0.2,2.5-0.7c0.3-0.2,0.5-0.2,0.8-0.2s0.4,0.1,0.6,0.3c0.2,0.2,0.3,0.5,0.3,0.7
			s-0.2,0.5-0.5,0.8c-1.1,0.7-2.4,1.1-3.8,1.1c-1.7,0-3.2-0.6-4.4-1.6c-1.3-1.2-1.9-2.7-1.9-4.6s0.6-3.4,1.9-4.6
			c1.2-1.1,2.7-1.6,4.4-1.6c0.9,0,1.7,0.1,2.3,0.4c0.6,0.3,1.1,0.5,1.4,0.7c0.4,0.2,0.5,0.5,0.5,0.8c0,0.3-0.1,0.5-0.3,0.7
			c-0.2,0.2-0.4,0.3-0.5,0.3c-0.3,0-0.5-0.1-0.8-0.2c-0.8-0.4-1.6-0.7-2.5-0.7c-1.4,0-2.5,0.4-3.2,1.2c-0.8,0.8-1.1,1.8-1.1,3.1
			c0,1.3,0.4,2.3,1.1,3.1C70,39.6,71.1,40,72.5,40"/>
		<path class="st0" d="M82.8,29.5c1.8,0,3.3,0.6,4.4,1.7c1.1,1.2,1.6,2.7,1.6,4.5s-0.6,3.4-1.6,4.5c-1.1,1.1-2.6,1.7-4.4,1.7
			c-1.8,0-3.3-0.6-4.4-1.7c-1.1-1.1-1.6-2.7-1.6-4.5c0-1.9,0.6-3.4,1.6-4.5C79.5,30.1,81,29.5,82.8,29.5 M80.2,39.1
			c0.4,0.3,0.8,0.6,1.2,0.7s0.9,0.2,1.4,0.2c0.5,0,0.9-0.1,1.4-0.2c0.5-0.2,0.9-0.4,1.3-0.7c0.8-0.8,1.3-1.9,1.3-3.3
			c0-1.4-0.4-2.5-1.3-3.3c-0.7-0.6-1.6-1-2.6-1c-1.7,0-2.9,0.8-3.5,2.3c-0.2,0.6-0.4,1.2-0.4,2c0,0.8,0.1,1.4,0.4,2
			C79.5,38.3,79.8,38.7,80.2,39.1"/>
		<path class="st0" d="M92.2,31.7c0.9-1.4,2.3-2.1,4-2.1c0.8,0,1.6,0.3,2.3,0.8c0.6,0.4,1,0.9,1.3,1.7c0.4-0.7,0.9-1.2,1.3-1.5
			c0.9-0.6,1.9-1,3-1c1.3,0,2.3,0.5,3,1.5c0.6,0.8,0.9,1.8,0.9,3.1v6.8c0,0.3-0.1,0.6-0.3,0.8c-0.2,0.2-0.5,0.3-0.8,0.3
			c-0.3,0-0.6-0.1-0.8-0.3c-0.2-0.2-0.3-0.5-0.3-0.8v-6.3c0-1-0.2-1.7-0.5-2.2c-0.4-0.5-1-0.7-1.9-0.7c-1.4,0-2.5,0.8-3.4,2.2v7.1
			c0,0.3-0.1,0.6-0.3,0.8c-0.2,0.2-0.5,0.3-0.8,0.3c-0.3,0-0.6-0.1-0.8-0.3c-0.2-0.2-0.3-0.5-0.3-0.8v-6.3c0-1-0.2-1.7-0.5-2.2
			c-0.4-0.5-1-0.7-1.9-0.7c-1.4,0-2.5,0.8-3.4,2.2v7.1c0,0.3-0.1,0.6-0.3,0.8c-0.2,0.2-0.5,0.3-0.8,0.3c-0.3,0-0.6-0.1-0.8-0.3
			c-0.2-0.2-0.3-0.5-0.3-0.8V30.8c0-0.3,0.1-0.6,0.3-0.8c0.2-0.2,0.5-0.3,0.8-0.3s0.6,0.1,0.8,0.3c0.2,0.2,0.3,0.5,0.3,0.8
			L92.2,31.7L92.2,31.7z"/>
		<path class="st1" d="M27.1,41.6c0,1-0.8,1.8-1.8,1.8H8.8c-1,0-1.8-0.8-1.8-1.8V25.2c0-1,0.8-1.8,1.8-1.8h16.4c1,0,1.8,0.8,1.8,1.8
			V41.6z"/>
		<path class="st2" d="M15.4,29.7c-0.2,0-0.2,0.1-0.4,0.3c-0.9,1.4-3.5,5.4-3.9,6c-0.4,0.6-0.5,1-0.4,1.4c0.1,0.4,0.4,0.7,0.9,0.8
			c0.1,0,0.3,0,0.3-0.1c0.7-0.8,4.4-5.9,5.1-6.8c0.1-0.1,0.1-0.2,0-0.3c-0.1-0.3-0.6-0.8-1-1.1C15.9,29.7,15.6,29.7,15.4,29.7
			C15.4,29.7,15.4,29.7,15.4,29.7"/>
		<path class="st2" d="M23.9,37.9c-0.8-1.7-4.6-9.5-5.4-11.3c-0.4-0.9-0.9-2.1-1.3-3.2h-4.7c0.1,1.6,0.1,2.4-0.2,3.2
			c-0.5,1.3-1.9,2.7-2.9,3.8c-0.4,0.4,1.1,1.4,2.6,0.2c0.6-0.4,1.4-1.3,2.1-1.8c0.3-0.3,0.7-0.4,1.1-0.3c0.6,0.1,1,0.4,1.4,0.8
			c0.4,0.5,0.8,1.2,1.3,2c1,1.6,2.1,3.5,3.3,5.4c0.6,1,1.4,1.4,2.6,1.4C24,38,24,37.9,23.9,37.9"/>
		<path class="st2" d="M8.8,39.8c0,1,0.8,1.8,1.8,1.8c0,0,12.8,0,12.8,0c1,0,1.8-0.8,1.8-1.8H8.8z"/>
	</g>
</g>
</svg>
